<?xml version="1.0" standalone="no"?><!DOCTYPE svg PUBLIC "-//W3C//DTD SVG 1.1//EN" "http://www.w3.org/Graphics/SVG/1.1/DTD/svg11.dtd"><svg t="1754394173839" class="icon" viewBox="0 0 1024 1024" version="1.1" xmlns="http://www.w3.org/2000/svg" p-id="5789" xmlns:xlink="http://www.w3.org/1999/xlink" width="200" height="200"><path d="M727.096889 496.071111H512.568889V223.744c0-24.746667-16.497778-41.244444-41.244445-41.244444-24.803556 0-41.301333 24.746667-41.301333 41.244444v313.571556c0 16.497778 8.248889 24.746667 16.497778 32.995555 8.248889 8.248889 16.497778 8.248889 24.803555 8.248889h247.523556c24.746667 0 41.301333-16.497778 41.301333-41.244444 8.248889-24.746667-8.305778-41.244444-32.995555-41.244445z" fill="#707070" p-id="5790"></path><path d="M504.32 0.910222A500.110222 500.110222 0 0 0 0.910222 504.32a500.110222 500.110222 0 0 0 503.409778 503.352889 500.110222 500.110222 0 0 0 503.352889-503.352889A500.110222 500.110222 0 0 0 504.32 0.910222z m420.864 503.409778c0 231.025778-189.838222 420.864-420.864 420.864-231.082667 0-420.864-189.838222-420.864-420.864 0-231.082667 189.781333-420.864 420.864-420.864 115.484444 0 214.528 41.244444 297.073778 123.790222 82.488889 82.488889 123.790222 181.532444 123.790222 297.073778z" fill="#707070" p-id="5791"></path></svg>